<svg width="159" height="25" viewBox="0 0 159 25" fill="none" xmlns="http://www.w3.org/2000/svg">
<path d="M13.0897 18.8022L5.02069 24.5L8.06897 15.3489L0 9.65108H9.86207L13.0897 0.5L16.1379 9.65108H26L17.931 15.3489L20.9793 24.5L13.0897 18.8022Z" fill="#F79009"/>
<path d="M45.0897 18.8022L37.0207 24.5L40.069 15.3489L32 9.65108H41.8621L45.0897 0.5L48.1379 9.65108H58L49.931 15.3489L52.9793 24.5L45.0897 18.8022Z" fill="#F79009"/>
<path d="M77.0897 18.8022L69.0207 24.5L72.069 15.3489L64 9.65108H73.8621L77.0897 0.5L80.1379 9.65108H90L81.931 15.3489L84.9793 24.5L77.0897 18.8022Z" fill="#F79009"/>
<path d="M109.09 18.8022L101.021 24.5L104.069 15.3489L96 9.65108H105.862L109.09 0.5L112.138 9.65108H122L113.931 15.3489L116.979 24.5L109.09 18.8022Z" fill="#F79009"/>
<path d="M141.09 18.8022L133.021 24.5L136.069 15.3489L128 9.65108H137.862L141.09 0.5L144.138 9.65108H154L145.931 15.3489L148.979 24.5L141.09 18.8022Z" fill="#F79009"/>
</svg>
