<svg width="26" height="26" viewBox="0 0 26 26" fill="none" xmlns="http://www.w3.org/2000/svg">
<g clip-path="url(#clip0_948_2316)">
<path d="M7.79657 0.150517C8.26952 0.147196 8.7425 0.147096 9.21545 0.150217C9.21377 0.282904 9.21234 0.414774 9.20091 0.547078C9.60852 0.708436 9.94297 0.808839 10.3108 1.07512C10.8441 1.46115 11.2961 2.00256 11.4858 2.64117C11.5373 2.81451 11.5617 2.99396 11.5903 3.17211C11.3667 3.19187 11.1365 3.18337 10.9121 3.1836C10.5014 3.18717 10.0907 3.18196 9.68028 3.16797C9.5919 2.84206 9.57804 2.67047 9.30719 2.43636C9.06515 2.22715 8.7346 2.16369 8.42263 2.18993C8.14143 2.21358 7.86556 2.31782 7.68134 2.53958C7.53062 2.72102 7.47265 2.94607 7.49564 3.17932C7.56105 3.84297 8.559 3.88306 9.04891 3.94604C9.19077 3.96495 9.33145 3.99184 9.47028 4.02658C9.94634 4.14456 10.4024 4.33904 10.7812 4.6554C11.23 5.03029 11.5158 5.55304 11.567 6.13649C11.6274 6.82348 11.4231 7.42704 10.9812 7.95077C10.6321 8.36463 10.1331 8.65988 9.61959 8.81834C9.51366 8.85103 9.40535 8.88601 9.29452 8.89567C9.29504 9.08051 9.2939 9.26535 9.29109 9.45017L9.11931 9.45177C8.68198 9.45313 8.24223 9.4396 7.80527 9.44937C7.79985 9.26529 7.79022 9.08311 7.79309 8.89879C7.25463 8.79138 6.71851 8.52377 6.31479 8.15232C5.83228 7.70839 5.41725 7.00662 5.39014 6.33905C5.61463 6.33237 7.21708 6.29634 7.30837 6.33401C7.31241 6.33568 7.31699 6.33697 7.31989 6.34023C7.35317 6.37776 7.36642 6.46152 7.37977 6.5092C7.4547 6.77669 7.57117 6.99504 7.79938 7.16254C8.08343 7.37104 8.45745 7.42877 8.80096 7.37576C9.07948 7.33277 9.38503 7.19702 9.55353 6.96267C9.68626 6.77805 9.74497 6.5204 9.70458 6.29611C9.59799 5.70438 8.93587 5.644 8.45778 5.57157C8.1923 5.53133 7.92478 5.49167 7.66328 5.43033C7.28393 5.34136 6.86208 5.16604 6.5429 4.93969C6.10511 4.62924 5.74345 4.15925 5.65326 3.62172C5.53829 2.93651 5.74026 2.16369 6.1456 1.60528C6.5255 1.08192 7.14694 0.657232 7.79257 0.554572C7.79081 0.41956 7.78923 0.285429 7.79657 0.150517Z" fill="white"/>
<path d="M20.4755 6.97287C20.3869 6.86098 20.2827 6.76155 20.1834 6.65922C19.9129 6.38024 19.6257 6.12194 19.3525 5.84661C19.0137 5.50115 18.6717 5.1589 18.3264 4.81991C18.2486 4.74298 18.0851 4.55464 18.0056 4.50337C17.9992 4.4992 17.9919 4.49637 17.9851 4.49288L17.9842 4.47893L17.9978 4.48194L17.9895 4.47093C18.2578 4.43906 18.5536 4.46066 18.8247 4.46098L20.4552 4.46287L23.7988 4.4579C24.345 4.45756 24.8958 4.44107 25.4413 4.45585C25.5331 4.45832 25.6341 4.46204 25.7202 4.4969C25.8734 4.55896 25.9364 4.70023 26 4.84003V4.90648C25.8579 5.38601 25.6951 5.85933 25.5402 6.33482L24.9807 8.08469L24.4648 9.69226C24.3561 10.0353 24.26 10.384 24.1365 10.722C23.7946 10.3677 23.4343 10.0301 23.0873 9.68069C22.8217 9.41328 22.563 9.10985 22.2672 8.87617C21.8419 9.23741 21.3845 9.56301 20.9506 9.91426L16.594 13.4115L14.8196 14.849C14.5111 15.1001 14.2115 15.4028 13.8675 15.603C13.5196 15.8078 13.1169 15.8999 12.7146 15.8665C12.4607 15.8466 12.2109 15.7895 11.9879 15.6624C11.6635 15.4774 11.3681 15.2045 11.0757 14.9711L9.78669 13.9609L8.32074 12.8336C8.14912 12.7003 7.95083 12.5769 7.79209 12.4298C7.56562 12.64 7.2759 12.8382 7.03239 13.035L5.03021 14.6397C4.14727 15.3651 3.25633 16.0807 2.35756 16.7864C2.13018 16.9623 1.92456 17.1848 1.68445 17.3411C1.45472 17.1065 1.2455 16.8511 1.03303 16.6008L0.457243 15.9351C0.342332 15.8013 0.127019 15.5191 0 15.4194V15.3611C0.272241 15.1969 0.571196 14.9261 0.821661 14.7208L1.95129 13.8072C3.19063 12.8115 4.43608 11.8234 5.68759 10.843C5.94846 10.6419 6.20162 10.4303 6.46025 10.2261C6.60987 10.108 6.75756 9.98279 6.92317 9.88737C7.10661 9.7817 7.31938 9.71433 7.52841 9.68378C7.84998 9.63678 8.21822 9.69115 8.5134 9.82699C8.77026 9.94519 8.99622 10.1498 9.22378 10.3164C9.5423 10.5496 9.86543 10.7761 10.1829 11.011L12.9228 13.0222C13.0727 12.8531 13.4099 12.6137 13.5959 12.4669L14.9806 11.374L20.4755 6.97287Z" fill="white"/>
<path d="M0.0395729 21.6589C0.0734531 21.5965 0.12324 21.5515 0.1759 21.5053C0.63294 21.104 1.12735 20.7357 1.59901 20.3504L3.02588 19.196C3.28642 18.9852 3.54302 18.7648 3.8091 18.5611C3.85623 18.5251 3.91576 18.4808 3.97219 18.462C3.97858 18.4598 3.98527 18.4587 3.99181 18.457L3.97259 18.4648C3.98412 18.4634 3.99599 18.4577 4.00716 18.4608C4.05483 18.4742 4.26165 18.6533 4.30953 18.6913C4.3941 18.7582 4.47581 18.822 4.53978 18.9103C4.54252 18.9141 4.54551 18.9176 4.54813 18.9214C4.59556 18.9915 4.56823 21.2444 4.56743 21.5203L4.57095 24.3972C4.57068 24.6527 4.59515 25.3891 4.54369 25.5893C4.51433 25.7034 4.43747 25.8141 4.33315 25.872C4.27724 25.9031 4.21459 25.9165 4.15128 25.9204C3.8195 25.9407 3.48026 25.924 3.14766 25.9264C2.559 25.9326 1.9703 25.9342 1.38162 25.9311C1.16034 25.9313 0.549235 25.963 0.370588 25.9074C0.344412 25.8992 0.319149 25.8876 0.29437 25.876L0.294268 25.9172C0.31966 25.9422 0.338452 25.954 0.37084 25.9683C0.393547 25.9785 0.395538 25.9798 0.412298 26.0001H0.158968H0V25.9287V25.4252V25.3053V21.6403L0.0395729 21.6589ZM0 21.6403V25.3053L0.0355381 25.2927C0.0482928 25.1861 0.0353323 25.0714 0.0319208 24.9643C0.026426 24.7991 0.024565 24.6338 0.0263392 24.4685C0.0446368 23.5321 0.0490486 22.5955 0.0395729 21.6589L0 21.6403ZM0 25.4252V25.9287V26.0001H0.158968H0.412298C0.395538 25.9798 0.393547 25.9785 0.37084 25.9683C0.338452 25.954 0.31966 25.9422 0.294268 25.9172L0.29437 25.876C0.276119 25.85 0.231816 25.8199 0.206948 25.7983C0.0642418 25.6598 0.0877277 25.5693 0 25.4252Z" fill="white"/>
<path d="M0 21.6401L0.0395729 21.6588C0.0490485 22.5953 0.0446368 23.532 0.0263392 24.4684C0.024565 24.6337 0.026426 24.799 0.0319208 24.9642C0.0353323 25.0713 0.0482928 25.1859 0.0355381 25.2926L0 25.3051V21.6401Z" fill="black" fill-opacity="0.0392157"/>
<path d="M7.93287 15.5371C7.97957 15.5489 8.01402 15.5755 8.05231 15.6034C8.21907 15.7251 8.37911 15.858 8.54231 15.9847L10.0851 17.1973L11.178 18.046C11.356 18.1864 11.55 18.3216 11.7115 18.4808C11.715 18.5452 11.7178 18.6097 11.72 18.6742C11.734 19.0912 11.7252 19.5106 11.7262 19.9279L11.7238 22.7996L11.7262 24.5696C11.7257 24.8684 11.7457 25.1838 11.7135 25.4801C11.6989 25.6149 11.6766 25.7055 11.5779 25.8063C11.4206 25.9671 11.1961 25.9451 10.9906 25.9438C10.2918 25.9582 9.59078 25.9332 8.89166 25.9332C8.50346 25.9332 7.90917 25.9748 7.54202 25.9205C7.44916 25.9068 7.33483 25.8149 7.28089 25.7388C7.22833 25.6647 7.21791 25.5819 7.2149 25.4934C7.20863 25.3082 7.21894 25.1207 7.22027 24.9353L7.21946 23.9704L7.21949 19.788L7.22086 17.3768L7.22113 16.6435C7.22133 16.4768 7.21409 16.3043 7.2373 16.139C7.37036 15.9656 7.74684 15.6844 7.93287 15.5371Z" fill="white"/>
<path d="M18.2436 15.0576C18.4754 15.1943 18.6976 15.4277 18.8115 15.6721C18.8329 15.8229 18.8261 15.9807 18.8261 16.1329L18.8254 16.8088L18.8221 19.1637L18.8244 23.1323L18.8207 24.606C18.8187 24.8564 18.8239 25.11 18.8088 25.3597C18.8005 25.4979 18.7812 25.6253 18.6969 25.7402C18.6199 25.8453 18.5229 25.9145 18.3938 25.9338C18.0337 25.9459 17.6712 25.9376 17.3109 25.9395C16.6165 25.9467 15.9221 25.9474 15.2277 25.9417C14.9881 25.9398 14.5905 25.9885 14.4144 25.7998C14.3334 25.7129 14.3093 25.6006 14.2984 25.4859C14.2691 25.175 14.2945 24.8457 14.2929 24.5323L14.2856 22.4322L14.3016 19.7259C14.3026 19.2523 14.2719 18.7767 14.2986 18.3037C14.4062 18.1746 14.5599 18.0706 14.6907 17.9654C14.9043 17.7948 15.1165 17.6226 15.3273 17.4488L17.2898 15.8315L17.8801 15.3433C17.9982 15.2461 18.115 15.1404 18.2436 15.0576ZM18.3938 25.9338C18.5229 25.9145 18.6199 25.8453 18.6969 25.7402C18.7812 25.6253 18.8005 25.4979 18.8088 25.3597C18.8239 25.11 18.8187 24.8564 18.8207 24.606L18.8244 23.1323L18.8221 19.1637L18.8254 16.8088L18.8261 16.1329C18.8261 15.9807 18.8329 15.8229 18.8115 15.6721L18.7566 15.6601C18.7268 15.6841 18.7308 15.7108 18.727 15.7481C18.7044 15.9765 18.7127 16.2145 18.7124 16.4438C18.7119 16.8458 18.7151 17.2481 18.7094 17.65C18.6804 19.7164 18.7374 21.7832 18.7016 23.8494C18.6967 24.1897 18.6958 24.53 18.6991 24.8703C18.7006 25.0689 18.7161 25.2782 18.6945 25.4758C18.6841 25.5706 18.654 25.6937 18.5806 25.7609C18.5242 25.8128 18.3843 25.8503 18.3524 25.9134C18.3777 25.9324 18.3638 25.9257 18.3938 25.9338Z" fill="white"/>
<path d="M18.3939 25.9338C18.364 25.9257 18.3778 25.9324 18.3525 25.9134C18.3844 25.8503 18.5243 25.8129 18.5808 25.7609C18.6542 25.6938 18.6843 25.5706 18.6947 25.4758C18.7163 25.2783 18.7008 25.0689 18.6992 24.8704C18.696 24.53 18.6968 24.1897 18.7018 23.8494C18.7376 21.7832 18.6806 19.7164 18.7095 17.65C18.7152 17.2481 18.7121 16.8458 18.7126 16.4438C18.7128 16.2146 18.7046 15.9765 18.7272 15.7481C18.731 15.7108 18.7269 15.6842 18.7568 15.6602L18.8116 15.6721C18.8331 15.8229 18.8262 15.9807 18.8262 16.1329L18.8256 16.8088L18.8223 19.1637L18.8246 23.1324L18.8209 24.606C18.8188 24.8564 18.824 25.11 18.8089 25.3598C18.8007 25.4979 18.7814 25.6253 18.6971 25.7402C18.62 25.8454 18.523 25.9145 18.3939 25.9338Z" fill="url(#paint0_linear_948_2316)"/>
<path d="M25.1788 25.9213C24.4493 25.9433 23.7145 25.9288 22.9846 25.9249C22.6194 25.9229 22.2416 25.9516 21.8782 25.9203C21.817 25.9151 21.7627 25.902 21.7088 25.8723C21.5972 25.8109 21.4873 25.699 21.4542 25.5744C21.4019 25.3776 21.4319 24.932 21.432 24.7148L21.4401 22.7182V16.8398L21.4347 14.427C21.434 14.0281 21.4255 13.6277 21.434 13.2291C21.4364 13.1122 21.4411 12.9919 21.5052 12.8899C21.5624 12.7992 21.6564 12.7498 21.7588 12.7262C21.9605 12.6799 22.2091 12.707 22.4175 12.7079L23.5369 12.7123L24.7649 12.7116C24.9895 12.7111 25.2219 12.6989 25.4457 12.7167C25.5469 12.7247 25.6466 12.7394 25.7323 12.7981C25.82 12.8581 25.8742 12.9328 25.8958 13.0364C25.9193 13.1115 25.9326 13.1793 25.9383 13.2583C25.9697 13.3466 25.9638 13.5211 26 13.5712V25.8793C25.9807 25.9005 25.9613 25.924 25.9395 25.9424C25.9132 25.9646 25.8957 25.9626 25.8632 25.9598C25.8114 25.9326 25.7749 25.8537 25.7474 25.803C25.706 25.8299 25.6644 25.861 25.6187 25.8797C25.503 25.9461 25.3103 25.9236 25.1788 25.9213ZM25.8958 13.0364C25.8469 13.1023 25.855 13.222 25.8516 13.3023C25.8327 13.7439 25.8396 14.1882 25.8384 14.6301L25.837 16.8657L25.8379 22.7192L25.8467 24.5285C25.8477 24.793 25.8792 25.2524 25.8244 25.4917C25.7874 25.6536 25.6917 25.7931 25.5255 25.8346C25.533 25.8354 25.5405 25.8362 25.5479 25.8367C25.5815 25.839 25.6084 25.8277 25.6388 25.8156L25.6452 25.8283L25.615 25.858L25.6187 25.8797C25.6644 25.861 25.706 25.8299 25.7474 25.803C25.7749 25.8537 25.8114 25.9326 25.8632 25.9598C25.8957 25.9626 25.9132 25.9646 25.9395 25.9424C25.9613 25.924 25.9807 25.9005 26 25.8793V13.5712C25.9638 13.5211 25.9697 13.3466 25.9383 13.2583C25.9326 13.1793 25.9193 13.1115 25.8958 13.0364ZM25.5255 25.8346C25.436 25.8442 25.2083 25.858 25.1334 25.8963L25.1788 25.9213C25.3103 25.9236 25.503 25.9461 25.6187 25.8797L25.615 25.858L25.6452 25.8283L25.6388 25.8156C25.6084 25.8277 25.5815 25.839 25.5479 25.8367C25.5405 25.8362 25.533 25.8354 25.5255 25.8346Z" fill="white"/>
<path d="M25.5253 25.8345C25.5328 25.8352 25.5403 25.836 25.5478 25.8365C25.5813 25.8388 25.6082 25.8275 25.6387 25.8154L25.645 25.8281L25.6148 25.8578L25.6185 25.8795C25.5029 25.9459 25.3101 25.9235 25.1786 25.9212L25.1333 25.8962C25.2082 25.8578 25.4358 25.844 25.5253 25.8345Z" fill="#1C1D1E" fill-opacity="0.984314"/>
<path d="M25.8957 13.0366C25.9192 13.1118 25.9325 13.1796 25.9382 13.2585C25.9696 13.3469 25.9638 13.5213 25.9999 13.5715V25.8796C25.9806 25.9008 25.9612 25.9243 25.9394 25.9427C25.9131 25.9649 25.8956 25.9629 25.8631 25.9601C25.8113 25.9329 25.7749 25.8539 25.7473 25.8033C25.7059 25.8302 25.6643 25.8613 25.6186 25.88L25.6149 25.8583L25.6451 25.8285L25.6388 25.8158C25.6083 25.8279 25.5814 25.8392 25.5479 25.8369C25.5404 25.8364 25.5329 25.8357 25.5254 25.8349C25.6916 25.7934 25.7873 25.6539 25.8244 25.492C25.8791 25.2527 25.8476 24.7932 25.8466 24.5288L25.8378 22.7195L25.8369 16.8659L25.8383 14.6304C25.8395 14.1885 25.8326 13.7441 25.8515 13.3026C25.855 13.2222 25.8468 13.1025 25.8957 13.0366ZM25.9382 13.2585C25.9255 14.21 25.936 15.1631 25.9358 16.1147V21.9157L25.9332 24.2967L25.9346 25.0191C25.9349 25.1558 25.9432 25.2984 25.9287 25.4344C25.913 25.5821 25.8499 25.6985 25.7473 25.8033C25.7749 25.8539 25.8113 25.9329 25.8631 25.9601C25.8956 25.9629 25.9131 25.9649 25.9394 25.9427C25.9612 25.9243 25.9806 25.9008 25.9999 25.8796V13.5715C25.9638 13.5213 25.9696 13.3469 25.9382 13.2585Z" fill="url(#paint1_linear_948_2316)"/>
</g>
<defs>
<linearGradient id="paint0_linear_948_2316" x1="18.8689" y1="20.7784" x2="18.3533" y2="20.7865" gradientUnits="userSpaceOnUse">
<stop stop-color="#3C3B3D" stop-opacity="0.988235"/>
<stop offset="1" stop-color="#141614"/>
</linearGradient>
<linearGradient id="paint1_linear_948_2316" x1="25.9238" y1="19.5199" x2="25.697" y2="19.5188" gradientUnits="userSpaceOnUse">
<stop stop-color="#67686A"/>
<stop offset="1" stop-color="#3A3436"/>
</linearGradient>
<clipPath id="clip0_948_2316">
<rect width="26" height="26" fill="white"/>
</clipPath>
</defs>
</svg>
