<svg width="23" height="26" viewBox="0 0 23 26" fill="none" xmlns="http://www.w3.org/2000/svg">
<path d="M21.4009 12.7383C22.053 13.4761 22.4505 14.456 22.4505 15.5313C22.4505 16.9223 21.7854 18.1535 20.7643 18.9077C20.6856 18.7526 20.5968 18.604 20.4988 18.4628C20.1995 18.0315 19.8134 17.6673 19.3663 17.3967C19.1719 17.2795 18.9219 17.3465 18.8079 17.5464C18.6939 17.7462 18.7591 18.0032 18.9535 18.1204C19.8522 18.6643 20.3311 19.5673 20.3311 20.6243C20.3311 22.4791 18.8682 23.9827 17.0636 23.9827C16.2237 23.9827 15.4368 23.5654 14.9138 22.8922C14.7733 22.7105 14.5161 22.6804 14.3393 22.8248C14.1626 22.9692 14.1332 23.2336 14.2737 23.4153C14.6169 23.8571 15.0545 24.218 15.555 24.4657C15.7611 24.5677 15.9776 24.6506 16.2021 24.7122C15.6116 25.4956 14.6876 26 13.6489 26C13.0084 26 12.4116 25.8082 11.9096 25.4775V20.6688H12.7451V19.3845C13.5695 19.2156 14.3362 18.8822 15.0114 18.419L15.8954 19.3275L17.6561 17.5177L16.7722 16.6092C17.2229 15.9152 17.5471 15.1271 17.7116 14.2797H18.961V11.7203H17.7116C17.5472 10.8728 17.2228 10.0848 16.7722 9.39074L17.6561 8.48221L15.8953 6.67242L15.0114 7.58084C14.3362 7.11758 13.5694 6.78432 12.745 6.61532V5.33116H11.9096V0.717737C12.5526 0.264947 13.3307 0 14.169 0C15.8226 0 17.2417 1.03074 17.8522 2.50105C17.3627 2.54305 16.8848 2.68189 16.4473 2.90816C15.7549 3.26616 15.1628 3.84405 14.7848 4.60426C14.6822 4.81042 14.7618 5.06305 14.9624 5.16842C15.163 5.27379 15.4088 5.19205 15.5113 4.98584C15.8066 4.39205 16.2711 3.93958 16.8153 3.65816C19.6713 2.18121 23 5.71205 23 8.81458C22.9999 10.3506 22.3878 11.7395 21.4009 12.7383ZM4.90101 3.32805C2.15589 3.56616 0 5.93153 0 8.81453C0 10.3506 0.612121 11.7394 1.59907 12.7383C0.946959 13.4761 0.549495 14.456 0.549495 15.5313C0.549495 17.2153 1.52421 18.6653 2.92537 19.3178C2.76023 19.7195 2.66888 20.1609 2.66888 20.6243C2.66888 22.4791 4.13179 23.9827 5.93635 23.9827C6.08291 23.9827 6.2271 23.9727 6.36853 23.9535C6.85402 25.1549 8.00647 26 9.3511 26C9.99159 26 10.5884 25.8082 11.0903 25.4775V18.4305H9.92732L8.88236 20.592C9.06317 20.7967 9.17341 21.0686 9.17341 21.3669C9.17341 22.0037 8.67108 22.5201 8.05148 22.5201C7.43188 22.5201 6.92955 22.0037 6.92955 21.3669C6.92955 20.7301 7.43188 20.2137 8.05148 20.2137C8.08487 20.2137 8.1179 20.2152 8.15057 20.2182L9.29534 17.8502C9.35642 17.6966 9.50323 17.5884 9.67462 17.5884H11.0903V16.1829H8.3197L6.98045 17.4821C7.03289 17.6154 7.06177 17.7612 7.06177 17.9139C7.06177 18.5508 6.55948 19.0671 5.93984 19.0671C5.32024 19.0671 4.8179 18.5508 4.8179 17.9139C4.8179 17.2771 5.32024 16.7608 5.93984 16.7608C6.11143 16.7608 6.27401 16.8004 6.41943 16.8712L7.85751 15.4762C7.93238 15.3929 8.03945 15.3408 8.1584 15.3408H11.0903V13.4211H6.9846C6.82099 13.8497 6.41488 14.1532 5.93978 14.1532C5.32019 14.1532 4.81785 13.6368 4.81785 13C4.81785 12.3632 5.32019 11.8468 5.93978 11.8468C6.41488 11.8468 6.82094 12.1503 6.9846 12.5789H11.0903V10.6592H8.15835C8.0394 10.6592 7.93232 10.6071 7.85746 10.5238L6.41938 9.12884C6.27396 9.19958 6.11138 9.23921 5.93978 9.23921C5.32019 9.23921 4.81785 8.72289 4.81785 8.08605C4.81785 7.44916 5.32019 6.9329 5.93978 6.9329C6.55943 6.9329 7.06171 7.44916 7.06171 8.08605C7.06171 8.23879 7.03283 8.38453 6.9804 8.51795L8.31965 9.81711H11.0903V8.41163H9.67457C9.50318 8.41163 9.35637 8.30337 9.29528 8.14979L8.15052 5.78184C8.11785 5.78479 8.08482 5.78626 8.05143 5.78626C7.43183 5.78626 6.9295 5.26995 6.9295 4.63311C6.9295 3.99621 7.43183 3.47995 8.05143 3.47995C8.67108 3.47995 9.17336 3.99621 9.17336 4.63311C9.17336 4.93142 9.06317 5.20326 8.88231 5.408L9.92727 7.56953H11.0903V0.717737C10.4473 0.264947 9.6693 0 8.831 0C6.88183 0 5.25823 1.43195 4.90101 3.32805ZM15.3797 12.9999C15.3797 10.9398 13.8598 9.24453 11.9096 9.03416V16.9657C13.8598 16.7554 15.3797 15.0601 15.3797 12.9999Z" fill="white"/>
</svg>
