<svg width="28" height="27" viewBox="0 0 28 27" fill="none" xmlns="http://www.w3.org/2000/svg">
<path d="M5.81489 5.98746C6.95696 5.95383 7.96741 6.19265 8.9127 6.83522C9.97257 7.5557 10.7012 8.61832 10.9263 9.86015C11.0756 10.6648 11.0101 11.4933 10.736 12.2664C10.3873 13.2606 9.7423 14.1456 9.14095 15.0081L7.98223 16.6706C7.41429 17.4796 6.87908 18.3116 6.30091 19.1139C6.24674 19.1803 6.19773 19.2516 6.14711 19.3207C5.9409 19.0693 5.76747 18.7874 5.58354 18.52C5.25239 18.0456 4.92444 17.5692 4.59971 17.0907L3.39761 15.3434C3.15585 14.9949 2.90288 14.6506 2.67314 14.2948C2.47139 13.9822 2.2903 13.6587 2.1049 13.337C1.89801 12.9781 1.69128 12.6089 1.5314 12.2274C1.3889 11.8874 1.31195 11.4581 1.28602 11.092C1.19657 9.82872 1.57413 8.57167 2.44222 7.61142C3.31382 6.64729 4.4972 6.07014 5.81489 5.98746ZM5.92067 8.75477C5.40687 8.78709 4.97084 9.02979 4.63371 9.40098C4.3137 9.75334 4.15678 10.2515 4.1909 10.7177C4.22748 11.2176 4.46132 11.6623 4.85034 11.9893C5.24261 12.3218 5.75433 12.4901 6.27379 12.4573C6.28753 12.4563 6.30126 12.4552 6.31498 12.454C6.86616 12.3922 7.30568 12.1675 7.6538 11.7398C7.9692 11.3522 8.09006 10.8584 8.03196 10.3708C7.97268 9.87325 7.68785 9.42483 7.28671 9.11837C6.89353 8.818 6.41412 8.70615 5.92067 8.75477Z" fill="white"/>
<path d="M22.0292 0.333008H22.8313H27.4079V4.87094V5.43128C27.3448 5.58571 27.3359 5.7688 27.2848 5.92972C27.1751 6.27581 27.0227 6.61712 26.8684 6.94635C26.3349 8.08518 25.6516 9.12299 24.9449 10.1646C24.4657 10.8797 23.9766 11.5885 23.4778 12.2908C23.1198 12.7941 22.8016 13.3326 22.4214 13.8194C22.2577 13.6304 22.1232 13.4067 21.9807 13.2018C21.6709 12.7564 21.3641 12.3089 21.0604 11.8596L19.8257 10.0457C19.4844 9.5515 19.1239 9.06736 18.8041 8.55937C18.4812 8.04625 18.2088 7.51361 17.9529 6.96669C17.804 6.64838 17.6539 6.33483 17.5446 6.00069C17.2322 5.04612 17.5045 3.8765 17.9676 3.00716C18.4794 2.02825 19.3153 1.24522 20.3406 0.784172C20.5234 0.700078 20.7056 0.614295 20.8996 0.556851C21.136 0.486815 21.3824 0.435741 21.6263 0.397023C21.7531 0.376882 21.8968 0.376 22.0181 0.336793C22.0219 0.335601 22.0255 0.334269 22.0292 0.333008ZM22.3394 3.04192C21.772 3.08987 21.2753 3.28308 20.9019 3.71753C20.5745 4.09855 20.4094 4.63746 20.4561 5.13079C20.5008 5.60121 20.7811 6.08299 21.1535 6.38201C21.5355 6.68867 21.9936 6.82789 22.4854 6.81976C23.0308 6.7923 23.5099 6.58173 23.8799 6.18551C24.2164 5.82532 24.378 5.34573 24.351 4.86174C24.3261 4.34796 24.0923 3.86482 23.701 3.51851C23.3139 3.18187 22.854 3.03834 22.3394 3.04192ZM22.8313 0.333008C22.8391 0.336087 22.8468 0.339333 22.8548 0.342246C22.9967 0.394565 23.1854 0.393341 23.3371 0.417948C23.5024 0.444773 23.6687 0.49147 23.8278 0.542619C24.4976 0.752325 25.1162 1.09301 25.6455 1.54372C26.1748 1.99442 26.6036 2.54561 26.9055 3.16338C27.0821 3.51589 27.2283 3.89158 27.3027 4.27816C27.3347 4.4447 27.3486 4.72473 27.4079 4.87094V0.333008H22.8313Z" fill="white"/>
<path d="M14.6637 18.7767C14.6454 18.312 14.6595 17.8441 14.6575 17.379L14.6593 13.9531L14.6584 12.5622C14.6578 12.3527 14.6291 11.9795 14.6773 11.787C14.8655 11.6934 15.0632 11.6143 15.2565 11.5312C15.7172 11.3331 16.1837 11.1473 16.6467 10.9542L17.7187 10.5097C17.9657 10.4077 18.2127 10.2962 18.4698 10.2207L21.1703 14.0959L21.9307 15.1815C22.1036 15.4303 22.268 15.6856 22.4521 15.9268L24.8553 12.3919C25.0853 12.0495 25.3177 11.7086 25.5525 11.3692C25.654 11.2217 25.7762 10.9916 25.911 10.8795C26.2224 11.0202 26.5302 11.1684 26.8341 11.3239C26.9872 11.4007 27.1502 11.4703 27.2948 11.561C27.3076 11.9107 27.3 12.2627 27.2986 12.6128L27.2959 14.4109L27.2934 22.6721L27.2982 25.1813L27.299 25.9184C27.2981 26.056 27.2893 26.1957 27.2976 26.3329H27.2454H14.7178H14.677H13.4067H13.332H0.791295H0.762271C0.72372 26.0395 0.748817 25.7149 0.751055 25.4187C0.757894 24.885 0.76015 24.3513 0.757825 23.8176L0.755676 17.6837L0.760785 14.662L0.761168 13.8781C0.761088 13.7524 0.745765 13.6091 0.769978 13.4866L0.782898 13.4773C0.857662 13.5423 1.12606 14.0596 1.19934 14.1835C1.30049 14.3567 1.40689 14.5269 1.51842 14.6939C2.06414 15.5018 2.61656 16.3055 3.17561 17.1048C3.451 17.4986 3.73956 17.8867 4.00642 18.2857L5.36055 20.2772C5.59887 20.6267 5.89183 21.1079 6.16772 21.4166C6.50191 20.8925 6.87923 20.3933 7.2305 19.8798L9.80954 16.1272L10.6011 14.9612C10.8306 14.6253 11.0831 14.2923 11.2894 13.9435C11.4421 13.6852 11.5664 13.4111 11.6859 13.1373C11.8667 12.723 11.9978 12.2836 12.0976 11.8445C12.1381 11.6664 12.1586 11.4808 12.2056 11.305C12.4164 11.3846 13.25 11.705 13.38 11.8162C13.4295 12.0438 13.3991 12.3181 13.4004 12.552L13.4045 14.0352L13.4059 17.49C13.4058 18.0868 13.416 18.685 13.4038 19.2816C13.6041 19.196 13.8096 19.1231 14.0116 19.0421C14.2294 18.9549 14.4443 18.8592 14.6637 18.7767ZM0.791295 26.3329H13.332C13.2396 26.2627 13.0899 26.2226 12.9812 26.1771C12.7459 26.0786 12.5096 25.9811 12.2761 25.8784C11.1062 25.3506 9.9314 24.8331 8.75178 24.3261L7.73246 23.8927C7.51455 23.8011 7.28977 23.6876 7.05835 23.635C6.64465 23.7923 6.23928 23.9824 5.83177 24.1551C4.99122 24.5043 4.15464 24.8624 3.32219 25.2294L1.43928 26.0279C1.24956 26.1102 1.05446 26.1855 0.867784 26.274C0.834101 26.2898 0.814981 26.305 0.791295 26.3329ZM14.7178 26.3329H27.2454C27.1846 26.2815 27.1021 26.252 27.0291 26.2196C26.5843 26.0222 26.1309 25.8409 25.6834 25.6494L22.971 24.4845L21.7236 23.9495C21.465 23.8383 21.1988 23.701 20.9251 23.6334C20.7793 23.6765 20.6359 23.7571 20.4967 23.8182C20.2996 23.9047 20.0993 23.9846 19.9004 24.067C19.3317 24.3068 18.7666 24.5544 18.2051 24.8096C17.5166 25.1066 16.8296 25.4071 16.1442 25.7109L15.1443 26.1435C15.0192 26.1969 14.8723 26.2372 14.7536 26.3001C14.7379 26.3084 14.7289 26.3198 14.7178 26.3329ZM13.4172 22.1126C13.3797 22.5299 13.4076 23.0411 13.4074 23.4697L13.4067 26.3329H14.677C14.6571 25.9795 14.6632 25.6256 14.6642 25.2719L14.6622 24.043L14.6581 22.4949C14.6578 22.2031 14.6509 21.9097 14.6648 21.6184C14.4388 21.6679 13.6323 21.9958 13.4172 22.1126ZM16.4209 14.455C16.2527 14.4886 16.109 14.5754 16.0132 14.7163C15.9247 14.8467 15.8902 15.0148 15.9282 15.1673C15.9721 15.3371 16.0835 15.4831 16.238 15.5731C16.37 15.6491 16.5203 15.6723 16.6714 15.6567C16.8479 15.6119 16.9973 15.5186 17.0927 15.3639C17.1368 15.2919 17.1653 15.2119 17.1763 15.1287C17.1874 15.0456 17.1808 14.9612 17.157 14.8806C17.1339 14.8039 17.0953 14.7324 17.0434 14.6704C16.9915 14.6084 16.9274 14.557 16.8548 14.5194C16.7164 14.4486 16.5728 14.4421 16.4209 14.455ZM18.7963 14.6701C18.629 14.6892 18.501 14.7408 18.3943 14.875C18.3436 14.9386 18.3069 15.0116 18.2862 15.0894C18.2655 15.1673 18.2614 15.2484 18.2741 15.3279C18.3023 15.4994 18.4137 15.6632 18.5605 15.7609C18.7104 15.8606 18.8737 15.8676 19.0469 15.8439C19.2203 15.8057 19.3537 15.7208 19.4501 15.5719C19.5387 15.4353 19.559 15.2664 19.5189 15.1107C19.4794 14.9572 19.3743 14.8155 19.2333 14.7353C19.1101 14.6653 18.9367 14.6474 18.7963 14.6701ZM20.9079 15.929C20.725 15.9573 20.5838 16.0114 20.4715 16.1641C20.3701 16.3019 20.3342 16.485 20.3671 16.6507C20.3983 16.8079 20.5018 16.945 20.6406 17.0292C20.7672 17.1058 20.8922 17.121 21.0372 17.1201C21.2196 17.0901 21.37 17.0193 21.4803 16.8687C21.5764 16.7373 21.6198 16.5664 21.5908 16.4068C21.5619 16.2478 21.4548 16.1057 21.3171 16.0174C21.1907 15.9361 21.0554 15.9209 20.9079 15.929ZM16.9567 18.5682C16.781 18.6026 16.6428 18.6759 16.5409 18.8249C16.4515 18.9558 16.4116 19.1262 16.4481 19.2805C16.4852 19.438 16.5963 19.5776 16.7374 19.6613C16.8501 19.7281 17.0139 19.7632 17.1456 19.7411C17.3227 19.7126 17.4781 19.6307 17.5832 19.4854C17.6272 19.4239 17.6582 19.3545 17.6743 19.2812C17.6904 19.2079 17.6912 19.1323 17.6769 19.0586C17.6471 18.9004 17.5421 18.7513 17.4058 18.6613C17.2679 18.57 17.1187 18.5568 16.9567 18.5682ZM12.3631 20.3608C12.2315 20.3845 12.1112 20.4709 12.0344 20.5758C11.9417 20.7023 11.8986 20.8744 11.9283 21.0277C11.9583 21.1823 12.0633 21.3312 12.1967 21.4193C12.3474 21.5188 12.5202 21.5286 12.6953 21.5039C12.8774 21.4485 13.024 21.3503 13.1145 21.1818C13.1835 21.0534 13.1902 20.9027 13.1431 20.766C13.0908 20.6139 12.9704 20.472 12.82 20.4037C12.6752 20.3378 12.5176 20.3429 12.3631 20.3608ZM14.8 19.5334C14.6239 19.5532 14.4822 19.6111 14.3679 19.7493C14.3168 19.8113 14.2792 19.8829 14.2574 19.9595C14.2357 20.0362 14.2302 20.1163 14.2413 20.1951C14.2635 20.3523 14.3583 20.4981 14.4916 20.5889C14.6181 20.6752 14.76 20.7047 14.912 20.7017C15.0885 20.6782 15.2437 20.6017 15.3528 20.4618C15.4502 20.3369 15.483 20.1894 15.4594 20.0355C15.436 19.8829 15.36 19.7425 15.2321 19.6487C15.1052 19.5558 14.9554 19.5289 14.8 19.5334ZM7.66101 20.8887C7.49497 20.9327 7.34926 21.032 7.26459 21.1796C7.18648 21.316 7.16267 21.4884 7.21079 21.6379C7.23308 21.7095 7.26989 21.776 7.31906 21.8335C7.36822 21.891 7.42873 21.9383 7.49703 21.9727C7.62725 22.0394 7.77736 22.0597 7.92136 22.0301C8.10229 21.9846 8.24774 21.8953 8.34487 21.7347C8.42216 21.607 8.43606 21.4544 8.39736 21.312C8.35855 21.1693 8.25254 21.0348 8.12138 20.9606C7.97719 20.879 7.82151 20.8832 7.66101 20.8887ZM19.276 17.7155C19.1008 17.7437 18.9647 17.806 18.8603 17.9527C18.8126 18.0193 18.7796 18.0949 18.7635 18.1745C18.7473 18.2541 18.7484 18.3361 18.7665 18.4154C18.7992 18.5642 18.888 18.695 19.0213 18.7763C19.1579 18.8598 19.309 18.8753 19.4658 18.8643C19.6577 18.8065 19.8168 18.709 19.9103 18.5281C19.9827 18.3882 19.9808 18.236 19.9305 18.0891C19.8827 17.95 19.7859 17.8297 19.6476 17.7668C19.535 17.7155 19.399 17.7015 19.276 17.7155ZM10.0599 20.7518C9.89127 20.7868 9.75474 20.8603 9.66069 21.0061C9.57628 21.1368 9.54511 21.3127 9.58222 21.4632C9.6203 21.6176 9.7286 21.7599 9.87173 21.8374C9.97889 21.8953 10.1288 21.9212 10.2507 21.8998C10.4244 21.8659 10.5691 21.8011 10.6724 21.6537C10.7637 21.5237 10.7883 21.3623 10.7554 21.2095C10.7216 21.0522 10.6217 20.906 10.479 20.8226C10.3438 20.7437 10.2112 20.7438 10.0599 20.7518Z" fill="white"/>
</svg>
