<svg width="20" height="26" viewBox="0 0 20 26" fill="none" xmlns="http://www.w3.org/2000/svg">
<path d="M9.71724 0.0122127C11.1786 -0.0813908 12.6243 0.365411 13.7931 1.27188C15.0565 2.24787 15.9475 3.75022 16.2571 5.33926C16.2993 5.55549 16.3328 5.77622 16.3508 5.99598C16.3667 6.19141 16.3696 6.3872 16.3965 6.58164C16.4864 6.6763 16.5893 6.75835 16.6802 6.85233C16.8807 7.05961 17.0389 7.35008 17.0983 7.63612C17.1668 7.96661 17.134 8.32951 17.1345 8.66641C17.1352 9.08156 17.1684 9.52695 17.0972 9.93511C17.0569 10.1667 16.9806 10.3837 16.8546 10.5809C16.5913 10.9928 16.1447 11.3233 15.6675 11.4037C15.4851 11.4345 15.2953 11.4277 15.115 11.4675L15.0986 11.4712C14.9852 11.5762 14.9013 11.7187 14.8078 11.8424C14.6654 12.0309 14.5126 12.2213 14.3551 12.3963C13.2786 13.592 11.8786 14.3778 10.2802 14.4396C9.71569 14.4607 9.15586 14.4141 8.60782 14.2694C7.85095 14.0658 7.14058 13.7107 6.51737 13.2245C5.89416 12.7384 5.37036 12.1306 4.97595 11.436C4.40924 11.4208 3.98062 11.3189 3.54438 10.9222C3.13556 10.5503 2.89333 10.0568 2.86246 9.49431C2.84932 9.25494 2.8648 9.0114 2.86371 8.77145C2.8613 8.24151 2.82139 7.79941 3.05224 7.30475C3.11281 7.17497 3.18852 7.03862 3.28313 6.93151C3.35331 6.85204 3.68755 6.57932 3.7088 6.51553C3.74747 6.39949 3.71912 6.22683 3.72884 6.10111C3.74485 5.89385 3.77127 5.68393 3.80273 5.4786C3.99537 4.2221 4.5558 3.08135 5.37742 2.13579C5.92935 1.50576 6.59679 0.993881 7.34149 0.629478C8.0862 0.265076 8.89354 0.0553146 9.71724 0.0122127ZM9.91957 0.898428C8.46625 0.945367 7.08942 1.57894 6.08727 2.66193C5.39185 3.42814 4.87707 4.42171 4.67869 5.45203C4.62293 5.74166 4.60292 6.03543 4.58103 6.32921C4.76348 6.33158 5.15255 6.2907 5.27919 6.43018C5.31847 6.47345 5.32516 6.5402 5.33052 6.59645C5.35505 6.85433 5.3332 7.21317 5.3331 7.48033L5.33239 9.29113C5.33231 9.50136 5.30343 9.80458 5.34938 10.0024C5.40677 10.2493 5.56088 10.5375 5.67569 10.7643C6.44402 12.2818 7.99086 13.3728 9.66161 13.4894C10.1042 13.5202 10.5771 13.5015 11.0125 13.4123C11.7758 13.256 12.6271 12.8215 13.2078 12.2884C13.2377 12.261 13.2648 12.2313 13.2906 12.1998C13.0261 12.2949 12.7661 12.3748 12.4897 12.4258C12.2884 12.4599 12.0901 12.4893 11.8862 12.5016C11.7509 12.7613 11.5345 12.9738 11.2571 13.0616C11.0125 13.139 10.4055 13.1425 10.1514 13.0925C10.061 13.0748 9.97212 13.0401 9.89148 12.9949C9.69503 12.8847 9.51021 12.6832 9.44783 12.4589C9.38483 12.2323 9.41647 11.969 9.53009 11.7649C9.58966 11.6583 9.66923 11.565 9.76418 11.4904C9.85913 11.4157 9.96756 11.3612 10.0832 11.33C10.3057 11.2696 10.9341 11.2724 11.1649 11.3211C11.2583 11.3411 11.348 11.3768 11.4301 11.4268C11.5858 11.5203 11.6865 11.6403 11.7952 11.7847C12.6601 11.7712 13.6935 11.3952 14.2959 10.7533C14.4133 10.6283 14.681 10.2911 14.7296 10.1338C14.7875 9.94572 14.7576 9.45792 14.7578 9.2375C14.7578 8.95122 14.7377 6.48044 14.7721 6.42561C14.8065 6.37052 14.9242 6.36282 14.981 6.36169C15.1508 6.35829 15.313 6.40544 15.4754 6.45083C15.4461 6.1997 15.452 5.94852 15.4105 5.69787C15.1664 4.22495 14.4907 2.98255 13.3419 2.0559C13.0111 1.78923 12.6421 1.54754 12.2591 1.36884C11.5649 1.04501 10.6817 0.859584 9.91957 0.898428Z" fill="white"/>
<path d="M9.71607 2.89737C9.91605 2.88702 10.1141 2.88426 10.3139 2.89989C11.4318 2.98736 12.4438 3.49967 13.1734 4.37823C13.9446 5.30686 14.3691 6.60861 14.272 7.82881C14.1718 9.08901 13.6144 10.3302 12.7685 11.2484C12.5817 11.4512 12.3689 11.6278 12.1622 11.8084C11.9466 11.5376 11.811 11.3129 11.4861 11.1659C11.3901 11.1218 11.2885 11.0919 11.1843 11.0769C10.9276 11.0396 10.2297 11.0456 9.96759 11.0839C9.86854 11.0984 9.77467 11.1245 9.68142 11.1613C9.53625 11.2171 9.40346 11.3163 9.29225 11.4259C8.99018 11.7235 8.90225 12.1024 8.8919 12.5185C8.48709 12.3099 8.11823 12.0865 7.77039 11.7856C6.64943 10.816 5.86248 9.38054 5.73369 7.87361C5.62471 6.59834 5.97478 5.38435 6.78311 4.40383C7.37612 3.69254 8.176 3.19578 9.06479 2.98677C9.2789 2.93801 9.49788 2.91605 9.71607 2.89737Z" fill="white"/>
<path d="M6.52028 14.4485L6.56016 14.4444C6.60323 14.4659 6.62952 14.5348 6.65096 14.5775C6.70191 14.679 6.73921 14.7858 6.78659 14.8888C6.92576 15.1915 7.06663 15.4923 7.20173 15.7969L8.08828 17.7693C8.14693 17.8977 8.33976 18.3727 8.40801 18.4474C8.43387 18.4757 8.5071 18.4806 8.54386 18.4827C8.80727 18.4976 9.08173 18.4814 9.34629 18.4811C10.0219 18.4799 10.6973 18.4684 11.3727 18.4869C11.4988 18.3132 11.5886 18.0807 11.6773 17.8848L12.0879 16.9778L12.7499 15.5683C12.9247 15.2013 13.1041 14.8384 13.2645 14.4644C13.4255 14.5145 13.5823 14.5854 13.7387 14.6483C13.9816 14.7466 14.225 14.8435 14.4689 14.9389C15.8032 15.4642 16.9456 15.8812 17.9891 16.92C18.9062 17.8251 19.5433 18.9795 19.823 20.2431C19.9446 20.8156 19.9866 21.3985 19.9904 21.9831L19.9921 23.5098C19.992 23.8846 20.0305 24.3514 19.9385 24.7108C19.8643 25.0007 19.7021 25.28 19.4931 25.4918C18.9063 26.086 18.2314 25.9961 17.4738 25.994L6.96567 25.9951L3.405 25.9917L2.26184 25.9936C2.0313 25.9943 1.79752 26.0022 1.56741 25.988C1.3705 25.9759 1.18506 25.9307 1.00299 25.8541C0.611027 25.6889 0.274987 25.3534 0.116043 24.955C0.0626373 24.8204 0.0294959 24.6785 0.0177199 24.534C-0.0190349 24.1064 0.0133411 23.6636 0.00993646 23.2339C0.00610321 22.7533 0.00580463 22.2727 0.00904076 21.7921C0.0104042 21.3928 0.00346211 20.9906 0.0539764 20.5938C0.124566 20.0393 0.252379 19.496 0.472128 18.9815C1.04315 17.6374 2.04446 16.5256 3.31573 15.8241C3.6108 15.6577 3.93086 15.5312 4.24017 15.3943C4.99537 15.0672 5.7555 14.752 6.52028 14.4485Z" fill="white"/>
</svg>
