<svg width="27" height="27" viewBox="0 0 27 27" fill="none" xmlns="http://www.w3.org/2000/svg">
<path d="M0 0H27V11.194V15.7867V18.0079V20.5522V27H0V21.6788V3.31065V0ZM27 20.5522L26.9908 20.5723C26.944 20.6773 26.9233 20.794 26.8766 20.9005C26.7382 21.217 26.4364 21.4792 26.118 21.6054C26.0045 21.6504 25.8939 21.6686 25.7729 21.6786C25.418 21.7078 25.0505 21.6844 24.6939 21.6854C24.394 21.6862 24.0196 21.7125 23.7285 21.6815C23.7508 22.6167 23.3045 23.5924 22.6659 24.2632C22.3125 24.6417 21.8877 24.9465 21.416 25.1602C20.9444 25.3739 20.4351 25.4922 19.9175 25.5084C18.9614 25.5291 17.9397 25.1457 17.2503 24.4786C17.0836 24.3173 16.9159 24.1505 16.7757 23.9653C16.2952 23.3305 16.0409 22.504 16.0286 21.7129C15.4162 21.7196 14.8033 21.7098 14.1908 21.7096L11.2098 21.709C10.8342 21.7067 10.4586 21.7069 10.0831 21.7097C9.87843 21.7107 9.64791 21.7333 9.44698 21.697C9.41103 21.9459 9.38619 22.1933 9.32861 22.4386C9.16657 23.1293 8.80634 23.8061 8.30747 24.3137C8.13515 24.4891 7.93961 24.642 7.74296 24.7888C6.9576 25.3757 5.91347 25.5952 4.95022 25.453C3.97825 25.3097 3.03699 24.7588 2.45108 23.9678C1.98558 23.3393 1.61924 22.4712 1.66278 21.6787C1.10836 21.6796 0.554552 21.6678 0 21.6788V27H27V20.5522ZM0 0V3.31065C0.00337153 3.30399 0.00686004 3.29739 0.0101146 3.29068C0.0701852 3.16675 0.0760865 3.00668 0.126942 2.87464C0.33634 2.33098 0.738998 1.84561 1.29481 1.63672C1.50099 1.55924 1.7244 1.51756 1.94408 1.50677C2.27571 1.49046 2.61199 1.49988 2.94423 1.49944L4.67623 1.49771L10.0479 1.4973L15.313 1.50118C15.8488 1.50257 16.3845 1.50096 16.9202 1.49632C17.2348 1.49466 17.5541 1.48244 17.8679 1.49925C18.145 1.5141 18.4104 1.57221 18.6628 1.68983C19.156 1.9196 19.5391 2.32166 19.724 2.83525C19.7771 2.98313 19.8102 3.12997 19.8239 3.28667C19.8409 3.48198 19.8342 3.67995 19.8338 3.87587L19.835 4.65766C19.8368 5.36294 19.8554 6.07321 19.8339 6.77802L22.3251 6.77624L23.1169 6.77497C23.3472 6.77475 23.5832 6.76209 23.81 6.8095C23.9719 6.84335 24.1282 6.94015 24.2456 7.05491C24.3935 7.19955 24.5059 7.38346 24.6219 7.55376C24.7768 7.78135 24.9302 8.01027 25.0877 8.23607L26.198 9.84937C26.4132 10.16 26.6506 10.4628 26.8394 10.79C26.9135 10.9181 26.9367 11.0639 27 11.194V0H0ZM5.33075 7.95081C4.79309 8.54818 4.28724 9.17312 3.76661 9.7848C3.35389 10.2697 2.91992 10.7437 2.5298 11.2469C3.1834 11.2463 3.84116 11.229 4.49423 11.2463C4.52086 12.4408 4.96283 13.5757 5.709 14.5042C5.83961 14.6667 5.97233 14.8281 6.12266 14.973C6.64272 15.4836 7.25974 15.8849 7.93735 16.1533C8.61496 16.4217 9.33944 16.5517 10.0681 16.5357C10.4373 16.5276 10.8351 16.4894 11.1914 16.3908C11.1636 16.3893 11.1424 16.3881 11.1167 16.3763L11.0997 16.3267C11.0122 16.2719 10.6848 16.2415 10.561 16.2123L10.5567 16.2112C10.3033 16.1513 10.0457 16.0904 9.79644 16.0158C9.53285 15.937 9.23963 15.8132 9.1016 15.5588C9.05522 15.4696 9.02606 15.3682 9.01262 15.2686C8.97159 14.964 9.30606 14.9891 9.44639 14.7981C9.44945 14.7938 9.4524 14.7896 9.45541 14.7854C9.40027 14.7642 9.34336 14.7398 9.29571 14.7046L9.29732 14.6801C9.2484 14.6362 9.1277 14.6235 9.06402 14.6056C8.86784 14.552 8.67566 14.4847 8.4889 14.4041C7.96209 14.1788 7.49538 13.8333 7.12616 13.3951C6.75695 12.957 6.49549 12.4385 6.36275 11.8811C6.31208 11.673 6.28956 11.4617 6.26691 11.2492L6.2667 11.2473C7.05799 11.2428 7.8493 11.2427 8.64059 11.2469C8.29015 10.9566 7.99151 10.5911 7.66803 10.2698L5.33075 7.95081ZM22.0613 8.98476L20.6044 8.99219C20.3582 8.993 20.0956 9.011 19.8512 8.98623C19.8674 9.89227 19.857 10.8002 19.8566 11.7064C19.8562 12.4321 19.8728 13.1649 19.8346 13.8896C20.7162 13.9136 21.6024 13.8908 22.4846 13.891L23.9001 13.8889C24.1635 13.8888 24.4322 13.8784 24.6948 13.8954C24.6865 13.321 24.6997 12.7458 24.6971 12.1712C24.6963 12.0016 24.7184 11.727 24.6887 11.5685C24.664 11.4367 23.1244 9.2991 22.9094 8.99063C22.6275 8.97823 22.3434 8.98123 22.0613 8.98476ZM5.40767 19.8749C4.96996 19.9009 4.57483 20.1048 4.28446 20.4293C4.13441 20.5959 4.01884 20.7906 3.94442 21.0021C3.87 21.2136 3.8382 21.4377 3.85085 21.6616C3.87536 22.0878 4.08748 22.5288 4.40778 22.811C4.77014 23.1305 5.18656 23.2547 5.66222 23.242C6.14626 23.1827 6.55297 22.9898 6.8584 22.5977C7.14917 22.2245 7.27158 21.7815 7.20891 21.3113C7.15057 20.8737 6.92708 20.4645 6.57155 20.1977C6.21977 19.9336 5.83884 19.8558 5.40767 19.8749ZM19.7033 19.8752C19.259 19.9051 18.8537 20.1278 18.5616 20.4608C18.2715 20.7916 18.1414 21.2421 18.1703 21.6777C18.1868 21.8987 18.2472 22.1142 18.348 22.3116C18.4488 22.509 18.5879 22.6844 18.7572 22.8274C19.0804 23.1056 19.4886 23.227 19.9105 23.2124C20.3818 23.1794 20.7705 22.9884 21.0807 22.6315C21.373 22.2953 21.5093 21.8645 21.474 21.4212C21.436 20.9427 21.2327 20.5408 20.8671 20.23C20.5174 19.9328 20.1497 19.8528 19.7033 19.8752ZM12.4874 13.7217C12.1657 14.083 11.5288 14.4169 11.0618 14.5559C10.7483 14.6492 10.4057 14.6996 10.0787 14.7116C9.93661 14.7168 9.36089 14.6629 9.29571 14.7046C9.34336 14.7398 9.40027 14.7642 9.45541 14.7854C9.4524 14.7896 9.44945 14.7938 9.44639 14.7981C9.30606 14.9891 8.97159 14.964 9.01262 15.2686C9.02606 15.3682 9.05522 15.4696 9.1016 15.5588C9.23963 15.8132 9.53285 15.937 9.79644 16.0158C10.0457 16.0904 10.3033 16.1513 10.5567 16.2112L10.561 16.2123C10.6848 16.2415 11.0122 16.2719 11.0997 16.3267L11.1167 16.3763C11.1424 16.3881 11.1636 16.3893 11.1914 16.3908L11.1926 16.3909C11.4136 16.3165 11.6417 16.2647 11.8608 16.1839C12.6155 15.9055 13.1665 15.4959 13.7754 14.9876C13.5092 14.7698 13.2731 14.5008 13.0298 14.2573C12.8509 14.0782 12.6553 13.9108 12.4874 13.7217ZM24.2106 15.7934C24.1713 16.3399 24.1981 16.9015 24.204 17.4497C24.206 17.6352 24.2143 17.8241 24.2051 18.0092C25.1352 18.0114 26.0704 17.982 27 18.0079V15.7867C26.3758 15.8142 25.742 15.7954 25.1169 15.7929C24.8177 15.7916 24.5082 15.8211 24.2106 15.7934Z" fill="white"/>
<path d="M5.33075 7.95081C4.79309 8.54818 4.28724 9.17312 3.76661 9.7848C3.35389 10.2697 2.91992 10.7437 2.5298 11.2469C3.1834 11.2463 3.84116 11.229 4.49423 11.2463C4.52086 12.4408 4.96283 13.5757 5.709 14.5042C5.83961 14.6667 5.97233 14.8281 6.12266 14.973C6.64272 15.4836 7.25974 15.8849 7.93735 16.1533C8.61496 16.4217 9.33944 16.5517 10.0681 16.5357C10.4373 16.5276 10.8351 16.4894 11.1914 16.3908C11.1636 16.3893 11.1424 16.3881 11.1167 16.3763L11.0997 16.3267C11.0122 16.2719 10.6848 16.2415 10.561 16.2123L10.5567 16.2112C10.3033 16.1513 10.0457 16.0904 9.79644 16.0158C9.53285 15.937 9.23963 15.8132 9.1016 15.5588C9.05522 15.4696 9.02606 15.3682 9.01262 15.2686C8.97159 14.964 9.30606 14.9891 9.44639 14.7981L9.45541 14.7854C9.40027 14.7642 9.34336 14.7398 9.29571 14.7046L9.29732 14.6801C9.2484 14.6362 9.1277 14.6235 9.06402 14.6056C8.86784 14.552 8.67566 14.4847 8.4889 14.4041C7.96209 14.1788 7.49538 13.8333 7.12616 13.3951C6.75695 12.957 6.49549 12.4385 6.36275 11.8811C6.31208 11.673 6.28956 11.4617 6.26691 11.2492L6.2667 11.2473C7.05799 11.2428 7.8493 11.2427 8.64059 11.2469C8.29015 10.9566 7.99151 10.5911 7.66803 10.2698L5.33075 7.95081Z" fill="white"/>
<path d="M11.0997 16.3267L11.1167 16.3763C11.1424 16.3881 11.1636 16.3893 11.1914 16.3908L11.1926 16.3909C11.4136 16.3165 11.6417 16.2647 11.8608 16.1839C12.6155 15.9055 13.1665 15.4959 13.7754 14.9876C13.5092 14.7698 13.2731 14.5008 13.0298 14.2573C12.8509 14.0782 12.6553 13.9108 12.4874 13.7217C12.1657 14.083 11.5288 14.4169 11.0618 14.5559C10.7483 14.6492 10.4057 14.6996 10.0787 14.7116C9.93661 14.7168 9.36089 14.6629 9.29571 14.7046C9.34336 14.7398 9.40027 14.7642 9.45541 14.7854L9.44639 14.7981C9.30606 14.9891 8.97159 14.964 9.01262 15.2686C9.02606 15.3682 9.05522 15.4696 9.1016 15.5588C9.23963 15.8132 9.53285 15.937 9.79644 16.0158C10.0457 16.0904 10.3033 16.1513 10.5567 16.2112L10.561 16.2123C10.6848 16.2415 11.0122 16.2719 11.0997 16.3267Z" fill="#FF0000"/>
</svg>
