<svg width="20" height="20" viewBox="0 0 20 20" fill="none" xmlns="http://www.w3.org/2000/svg">
<g clip-path="url(#clip0_934_1270)">
<path d="M9.81477 18.197C9.91809 18.2431 10.3178 18.5583 10.3948 18.6463C10.4888 18.7538 10.5534 18.8835 10.5406 19.03C10.5173 19.2955 10.3125 19.4231 10.1389 19.5911C10.049 19.6779 9.96516 19.7731 9.86994 19.8539C9.76848 19.9402 9.63559 20.0013 9.49962 19.9902C9.08545 19.9214 8.99646 19.7465 8.74487 19.4402C8.81255 19.3442 8.9114 19.2601 8.99672 19.1801C9.17981 19.0084 9.59648 18.6345 9.71137 18.452C9.76261 18.3706 9.78938 18.2894 9.81477 18.197Z" fill="white"/>
<path d="M6.26864 5.09193C6.49803 5.08631 6.72829 5.1427 6.91529 5.27912C7.13691 5.4408 7.28995 5.66853 7.33085 5.94174C7.35046 6.07027 7.34386 6.20144 7.31146 6.32736C7.27905 6.45328 7.22151 6.57134 7.14228 6.67443C6.95753 6.91957 6.71159 7.04102 6.41287 7.08166C6.1336 7.08592 5.90132 7.02209 5.68106 6.8444C5.5815 6.76316 5.49912 6.66291 5.43872 6.54949C5.37832 6.43607 5.34111 6.31176 5.32925 6.18381C5.30311 5.91393 5.4053 5.64627 5.57762 5.44096C5.75573 5.22876 5.99551 5.11671 6.26864 5.09193Z" fill="white"/>
<path d="M5.46621 14.7208C5.63776 14.7104 5.80738 14.7616 5.94451 14.8652C6.07813 14.9678 6.18134 15.1314 6.20323 15.2995C6.22464 15.4639 6.18675 15.6141 6.08513 15.7442C5.95793 15.9072 5.04974 16.8059 4.90872 16.8923C4.83203 16.9394 4.75076 16.9508 4.66359 16.9619C4.47007 16.9747 4.29942 16.9312 4.14874 16.8053C4.0821 16.7487 4.0273 16.6796 3.98748 16.6018C3.94765 16.524 3.9236 16.4391 3.91669 16.352C3.90024 16.1548 3.96138 15.9902 4.0892 15.8418C4.22732 15.6813 4.40112 15.5416 4.5532 15.3935C4.71783 15.233 4.9834 14.9248 5.16223 14.8101C5.25606 14.75 5.35692 14.7293 5.46621 14.7208Z" fill="white"/>
<path d="M13.5293 5.10037C13.7807 5.06767 14.0352 5.12918 14.2439 5.27303C14.4655 5.43026 14.6165 5.66811 14.6646 5.93548C14.6872 6.06932 14.6829 6.20633 14.6519 6.33847C14.6208 6.47062 14.5637 6.59523 14.4839 6.705C14.3169 6.93564 14.0934 7.05658 13.8154 7.1014C13.5611 7.12208 13.3252 7.09176 13.1118 6.94262C12.8774 6.77879 12.7148 6.55152 12.6674 6.26696C12.623 6.00089 12.6936 5.73531 12.8499 5.51739C13.0162 5.28542 13.2492 5.14724 13.5293 5.10037Z" fill="white"/>
<path d="M8.2858 17.2015C8.42558 17.185 8.56368 17.1987 8.69164 17.26C8.77772 17.3016 8.85468 17.3598 8.91806 17.4314C8.98143 17.503 9.02995 17.5864 9.0608 17.6769C9.10537 17.8053 9.11316 17.9986 9.04864 18.1233C9.01582 18.1868 8.97135 18.2447 8.92418 18.298C8.74305 18.5031 8.53387 18.691 8.34026 18.8846C8.17511 19.0499 7.99755 19.2572 7.811 19.3963C7.73749 19.4511 7.6595 19.4816 7.57243 19.5082C7.3849 19.5427 7.19853 19.5062 7.03958 19.3999C6.89189 19.301 6.79167 19.1629 6.75927 18.987C6.73047 18.8305 6.74427 18.6542 6.8376 18.521C6.93786 18.3781 7.07379 18.2628 7.1944 18.1377C7.40689 17.9173 7.61906 17.6995 7.84191 17.4894C7.92011 17.4157 7.99704 17.3313 8.08556 17.2703C8.14279 17.2307 8.21807 17.213 8.2858 17.2015Z" fill="white"/>
<path d="M7.01329 15.8334C7.15231 15.8248 7.28446 15.8457 7.40726 15.9136C7.5649 16.0009 7.69462 16.1526 7.7425 16.3273C7.78171 16.4704 7.78061 16.6593 7.70395 16.7897C7.58739 16.988 7.2635 17.2658 7.09344 17.4378C6.92451 17.612 6.75196 17.7827 6.5759 17.9498C6.50889 18.0138 6.44431 18.0875 6.37032 18.1432C6.28583 18.2069 6.20488 18.2376 6.10297 18.2634C5.92809 18.2742 5.75079 18.2362 5.60869 18.13C5.46234 18.0206 5.35975 17.8598 5.33646 17.6777C5.31132 17.4811 5.37543 17.3126 5.49616 17.1595C5.6378 16.98 5.82946 16.8187 5.99189 16.6568C6.15241 16.4955 6.31434 16.3356 6.47766 16.1771C6.5652 16.0916 6.64798 15.9974 6.74958 15.9282C6.83233 15.8717 6.91424 15.8455 7.01329 15.8334Z" fill="white"/>
<path d="M11.9636 0.762226C12.1959 0.772683 12.4321 0.763195 12.6647 0.762308L13.8634 0.760501C14.0994 0.760074 14.4026 0.735247 14.6307 0.777885C14.7274 0.795975 14.7848 0.833156 14.8598 0.8938C15.0783 1.07065 15.2992 1.32505 15.5047 1.5251C15.741 1.75518 15.9775 1.98414 16.2104 2.21763C16.301 2.30833 16.4016 2.39238 16.4854 2.48896C16.5313 2.54177 16.6017 2.62467 16.6077 2.69542C16.6123 2.75048 16.617 2.80551 16.6189 2.86074C16.6255 3.05454 16.6201 3.2502 16.62 3.44414L16.6194 4.53448L16.6193 5.12077C16.6191 5.22612 16.6278 5.34128 16.6122 5.44519C16.6003 5.52464 16.5677 5.6003 16.5113 5.65836C16.4594 5.71187 16.392 5.74522 16.3199 5.76235C16.1527 5.80211 15.6809 5.7768 15.481 5.77826C15.3533 5.77978 15.2259 5.78166 15.0981 5.77694C15.0792 5.64738 15.0371 5.52966 14.9739 5.41507C14.8808 5.24269 14.7545 5.09044 14.6022 4.96709C14.45 4.84374 14.2749 4.75173 14.0869 4.69636C13.7163 4.59093 13.2871 4.63246 12.9496 4.82238C12.708 4.95832 12.4733 5.19115 12.3582 5.44527C12.311 5.5494 12.2805 5.66229 12.2492 5.77206C12.1512 5.78229 12.0493 5.77824 11.9508 5.77943C11.9606 5.59595 11.9549 5.41095 11.9542 5.22724L11.9534 4.41588L11.9536 1.84623C11.9535 1.67847 11.9324 0.875966 11.9636 0.762226ZM13.1027 1.54754C13.0345 1.57103 12.9867 1.60789 12.9549 1.67378C12.9357 1.71331 12.9308 1.75207 12.9268 1.79524C12.9093 1.99103 12.8934 3.21173 12.9391 3.32739C12.9645 3.39167 13.012 3.43831 13.0764 3.463C13.1243 3.48142 13.1754 3.49035 13.2266 3.49372C13.5244 3.51334 13.8818 3.49506 14.1852 3.49457C14.6734 3.49379 15.1629 3.5043 15.651 3.49367C15.7169 3.47201 15.7579 3.44235 15.79 3.37947C15.8414 3.27891 15.8557 3.08081 15.8179 2.97284C15.8008 2.92405 15.7526 2.87712 15.7171 2.84022C15.553 2.66967 15.3719 2.51381 15.2011 2.34977C15.0741 2.22774 14.489 1.61798 14.3871 1.57128C14.2888 1.52617 13.29 1.55301 13.1027 1.54754Z" fill="white"/>
<path d="M0 7.54408C0.168271 7.42127 0.328093 7.33139 0.544103 7.36581C0.702864 7.3911 0.862563 7.45623 1.01554 7.50605L1.76863 7.74851L2.99828 8.1388C3.19574 8.20017 3.39224 8.26457 3.58771 8.33197C3.69334 8.36761 3.80358 8.3978 3.90546 8.44313C3.98521 8.47863 4.04864 8.528 4.10007 8.59911C4.18911 8.72226 4.20688 8.88229 4.18219 9.02957C4.14495 9.25163 4.03813 9.48032 3.96581 9.69477L3.46313 11.1852L2.83235 13.0877L2.56757 13.8966C2.52128 14.0361 2.48258 14.1815 2.42586 14.3171C2.38392 14.4173 2.31692 14.4881 2.22961 14.5501C2.10183 14.6409 1.95268 14.6669 1.8 14.6392C1.49869 14.5847 1.1832 14.4689 0.889803 14.3767C0.669886 14.3077 0.41542 14.2527 0.21451 14.1404C0.151549 14.1053 0.106694 14.0571 0.0665639 13.9981C0.0432488 13.964 0.0254189 13.9248 0 13.8923V7.54408Z" fill="white"/>
<path d="M20.0001 13.8669C19.9028 13.9825 19.8637 14.0931 19.7315 14.1835C19.6636 14.2299 19.5729 14.2633 19.4955 14.2894C19.2581 14.3694 19.0083 14.4235 18.7676 14.496C18.5918 14.5489 18.4114 14.6294 18.2325 14.6652C18.1691 14.6779 18.1029 14.6706 18.04 14.6578C17.8609 14.6217 17.6953 14.5038 17.5972 14.3496C17.5159 14.2218 17.4502 13.9099 17.4003 13.7551C17.3041 13.4568 17.1972 13.1616 17.0963 12.8648L16.1685 10.1478L15.9357 9.45354C15.8924 9.32498 15.843 9.19624 15.8077 9.06532C15.7819 8.96998 15.7757 8.87708 15.7984 8.77999C15.8289 8.6495 15.9174 8.53643 16.0322 8.46804C16.1262 8.4121 16.2364 8.38338 16.3392 8.34802L16.8691 8.1699C17.1102 8.08688 17.3484 7.9956 17.59 7.91361C17.9312 7.79779 18.2751 7.69252 18.6183 7.58338C18.8555 7.50797 19.0957 7.41348 19.3382 7.35854C19.4218 7.33959 19.5214 7.32826 19.6049 7.35104C19.8009 7.40453 19.9026 7.52842 20.0001 7.69636V13.8669Z" fill="white"/>
<path d="M10.2619 8.88146C10.8494 8.85084 11.2178 8.95788 11.7695 9.11177C12.0654 9.19214 12.3601 9.27706 12.6533 9.36649C12.9499 9.45595 13.2624 9.56225 13.5721 9.58448C14.0186 9.61651 14.4396 9.52499 14.8753 9.44274C15.025 9.84906 15.1546 10.2641 15.2944 10.674L16.0098 12.7314C16.1448 13.1217 16.2832 13.5107 16.4251 13.8986C16.4835 14.0562 16.5653 14.2076 16.6143 14.3677C16.5938 14.4435 16.0804 15.1175 15.9942 15.2286C15.9182 15.3265 15.8265 15.4217 15.7645 15.5285C15.7624 15.5321 15.7605 15.5357 15.7585 15.5393C15.727 15.4874 15.7107 15.4292 15.6864 15.3739C15.6395 15.2667 15.5809 15.169 15.5115 15.0748C15.3088 14.7992 14.9973 14.6041 14.7209 14.41C14.4403 14.213 14.1544 14.0241 13.871 13.8313L11.2633 12.0247C10.5537 11.5396 9.83361 11.068 9.13258 10.5706C9.03294 10.6492 8.94455 10.7433 8.85156 10.8297C8.64257 11.0241 8.43314 11.2195 8.22005 11.4093C8.09611 11.5197 7.97113 11.636 7.82596 11.7181C7.74285 11.7652 7.65874 11.7943 7.56231 11.7991C7.38573 11.8077 7.2159 11.7526 7.08541 11.632C6.94802 11.5051 6.86987 11.3553 6.8628 11.1666C6.8538 10.9263 6.9687 10.7861 7.12224 10.6195C7.39791 10.3202 7.69276 10.0394 7.98 9.75154C8.1057 9.62558 8.48062 9.20715 8.61582 9.14138C8.83983 9.03239 9.9922 8.89268 10.2619 8.88146Z" fill="white"/>
<path d="M7.50449 8.93823C7.51402 8.93917 7.50835 8.93745 7.51829 8.94948C7.49404 9.00299 7.37395 9.10488 7.32834 9.15299C7.115 9.37436 6.89647 9.59066 6.67292 9.80172C6.51789 9.95104 6.34443 10.1017 6.22007 10.2783C6.131 10.4047 6.06299 10.5541 6.01924 10.7021C5.90061 11.1037 5.96845 11.5183 6.16934 11.8818C6.3677 12.2408 6.7167 12.502 7.109 12.6137C7.80277 12.8112 8.32089 12.5503 8.82712 12.0935C8.94842 11.9841 9.06576 11.8349 9.20882 11.7562C9.21231 11.7543 9.21586 11.7524 9.21938 11.7505C9.25139 11.7671 9.28267 11.785 9.31312 11.8043C9.65514 12.0177 9.98271 12.2646 10.3162 12.4921L12.6807 14.116L14.0585 15.0701C14.2639 15.2112 14.5207 15.3528 14.7043 15.512C14.8036 15.5982 14.8805 15.7042 14.9081 15.8352C14.9416 15.9938 14.9026 16.1843 14.811 16.3172C14.7177 16.4527 14.5643 16.5703 14.3995 16.5975C14.3001 16.614 14.1776 16.6019 14.0848 16.5606C13.8781 16.4687 13.6872 16.2969 13.5054 16.1633L12.6929 15.5723C12.5862 15.494 12.4843 15.4089 12.3769 15.3318C12.2871 15.2673 12.189 15.2263 12.077 15.248C11.9882 15.2652 11.9223 15.3214 11.8733 15.3961C11.8099 15.4927 11.7979 15.6443 11.8617 15.7441C11.923 15.8403 12.0851 15.9254 12.1781 15.9913L13.0025 16.5738C13.1954 16.7091 13.4213 16.839 13.5841 17.0103C13.6552 17.0851 13.7125 17.1752 13.7336 17.2773C13.763 17.4201 13.7195 17.573 13.6395 17.6922C13.5434 17.8355 13.3872 17.9455 13.2168 17.9772C12.8939 18.0373 12.6724 17.8457 12.4331 17.6638C12.3133 17.571 12.1906 17.4819 12.0652 17.3968C11.8718 17.2647 11.6804 17.1295 11.4913 16.9913C11.4077 16.9298 11.3309 16.8522 11.2373 16.8064C11.1847 16.7806 11.1278 16.7678 11.0693 16.7737C10.986 16.7821 10.9052 16.8282 10.8542 16.8943C10.8018 16.9624 10.7854 17.047 10.7977 17.1314C10.807 17.1958 10.8362 17.2508 10.8796 17.2988C10.9796 17.4095 11.1293 17.4957 11.2509 17.5818C11.5132 17.7674 11.7859 17.9474 12.0387 18.1457C12.1657 18.2454 12.2554 18.3629 12.2725 18.5296C12.2807 18.6097 12.2727 18.6907 12.2488 18.7676C12.2249 18.8446 12.1857 18.9159 12.1335 18.9773C12.0229 19.1081 11.8554 19.2068 11.6832 19.2195C11.6037 19.2254 11.4982 19.22 11.4242 19.1888C11.262 19.1208 11.1151 18.993 10.9739 18.8891L10.4532 18.5073C10.252 18.3618 10.0302 18.2308 9.8417 18.0696C9.85908 17.6541 9.75783 17.2725 9.47669 16.9556C9.22162 16.6699 8.86496 16.4951 8.48283 16.4687C8.46776 16.1127 8.32056 15.7751 8.06998 15.5217C7.72963 15.1747 7.37265 15.1195 6.90638 15.116C6.81687 14.8356 6.69739 14.5847 6.47514 14.3838C6.24751 14.178 5.98555 14.0421 5.68094 13.9981C5.53127 13.9764 5.37905 13.9792 5.23029 14.0065C4.83877 14.0787 4.63129 14.3246 4.36751 14.5973C4.24926 14.7196 4.12037 14.8312 4.0024 14.9533C3.97377 14.983 3.9158 15.063 3.87494 15.0652C3.79865 15.0025 3.73507 14.9248 3.66643 14.854C3.55947 14.7435 3.44839 14.6362 3.3479 14.5199C3.3814 14.3537 3.45962 14.1754 3.51653 14.0149C3.6162 13.733 3.7139 13.4503 3.80963 13.1671L5.12093 9.34232C5.77774 9.53176 6.06088 9.34769 6.67491 9.15208C6.94837 9.06496 7.22436 8.99934 7.50449 8.93823Z" fill="white"/>
<path d="M3.66206 0H10.6468H10.9887H11.3781H11.4399L11.5105 0.0635135C11.5363 0.311326 11.5218 0.568669 11.524 0.818011C11.529 1.36389 11.5305 1.9098 11.5284 2.45569L11.5259 4.6292L11.5256 5.33747C11.5257 5.48351 11.5305 5.63186 11.5216 5.7776C11.2635 5.77127 11.0041 5.77795 10.7458 5.77696L8.82945 5.77473C8.47013 5.77486 8.10306 5.79509 7.74481 5.77112C7.71416 5.45701 7.52707 5.1734 7.28705 4.9772C6.97645 4.72328 6.5825 4.61381 6.18471 4.65496C5.81196 4.69353 5.45013 4.86918 5.21229 5.16349C5.06055 5.35124 4.98077 5.54611 4.92146 5.77808C4.65763 5.78037 4.39378 5.78078 4.12994 5.77932C3.97894 5.77897 3.80908 5.79455 3.66113 5.76344C3.59447 5.74941 3.5255 5.71444 3.47565 5.66774C3.38903 5.5866 3.39345 5.44662 3.39304 5.33685L3.39604 1.84623L3.39562 0.828027C3.39488 0.653796 3.38158 0.471443 3.39724 0.298236C3.40405 0.222777 3.42108 0.163488 3.47526 0.108149C3.512 0.0706262 3.54956 0.0439323 3.60053 0.0306744C3.62554 0.0229103 3.64755 0.0226224 3.66206 0ZM3.66206 0C3.64755 0.0226224 3.62554 0.0229103 3.60053 0.0306744C3.98864 0.0140968 4.38064 0.0216154 4.76921 0.0182698L8.20798 0.0177879C8.32213 -0.0105654 8.50207 0.0091139 8.62491 0.0072064C9.06551 0.000364524 9.50803 0.00432564 9.94872 0.00813969C10.1563 0.00993731 10.4489 0.0341339 10.6468 0H3.66206ZM10.6468 0C10.4489 0.0341339 10.1563 0.00993731 9.94872 0.00813969C9.50803 0.00432564 9.06551 0.000364524 8.62491 0.0072064C8.50207 0.0091139 8.32213 -0.0105654 8.20798 0.0177879C8.47463 0.0235985 8.74185 0.0182447 9.00859 0.0184154C9.62444 0.0220755 10.2403 0.0223387 10.8561 0.019205C10.9004 0.0132829 10.9446 0.00688087 10.9887 0H10.6468ZM10.9887 0C10.9446 0.00688087 10.9004 0.0132829 10.8561 0.019205C10.9761 0.0361069 11.26 0.0253559 11.3781 0H10.9887Z" fill="white"/>
<path d="M10.9882 0H11.3777C11.2595 0.0253559 10.9756 0.0361069 10.8557 0.019205C10.9 0.0132829 10.9441 0.00688087 10.9882 0Z" fill="black" fill-opacity="0.858824"/>
<path d="M10.6458 0H10.9877C10.9436 0.00688087 10.8994 0.0132829 10.8552 0.019205C10.2393 0.0223387 9.62349 0.0220755 9.00765 0.0184154C8.7409 0.0182447 8.47368 0.0235985 8.20703 0.0177879C8.32118 -0.0105654 8.50112 0.0091139 8.62397 0.0072064C9.06456 0.000364524 9.50708 0.00432564 9.94777 0.00813969C10.1554 0.00993731 10.448 0.0341339 10.6458 0Z" fill="black" fill-opacity="0.4"/>
<path d="M3.66114 0H10.6459C10.448 0.0341339 10.1554 0.00993731 9.9478 0.00813969C9.50711 0.00432564 9.06459 0.000364524 8.62399 0.0072064C8.50115 0.0091139 8.32121 -0.0105654 8.20706 0.0177879L4.76829 0.0182698C4.37973 0.0216154 3.98772 0.0140968 3.59961 0.0306744C3.62462 0.0229103 3.64663 0.0226224 3.66114 0Z" fill="black" fill-opacity="0.254902"/>
</g>
<defs>
<clipPath id="clip0_934_1270">
<rect width="20" height="20" fill="white"/>
</clipPath>
</defs>
</svg>
